HIERARCHY
ROOT Hips
{
 OFFSET 0.000000 0.000000 0.000000
 CHANNELS 6 Xposition Yposition Zposition Yrotation Xrotation Zrotation
 JOINT Chest
 {
  OFFSET 0.000000 9.585900 0.002600
  CHANNELS 3 Yrotation Xrotation Zrotation
  JOINT Chest2
  {
   OFFSET 0.000000 9.601200 -0.005300
   CHANNELS 3 Yrotation Xrotation Zrotation
   JOINT Chest3
   {
    OFFSET 0.000000 9.561800 0.000000
    CHANNELS 3 Yrotation Xrotation Zrotation
    JOINT Chest4
    {
     OFFSET 0.000000 9.552100 0.000000
     CHANNELS 3 Yrotation Xrotation Zrotation
     JOINT Neck
     {
      OFFSET 0.000000 14.453000 0.000000
      CHANNELS 3 Yrotation Xrotation Zrotation
      JOINT Head
      {
       OFFSET 0.000000 8.936500 -0.011300
       CHANNELS 3 Yrotation Xrotation Zrotation
       End Site
       {
        OFFSET 0.000000 17.073600 -0.006000
       }
      }
     }
     JOINT RightCollar
     {
      OFFSET -2.921100 9.558500 0.000000
      CHANNELS 3 Yrotation Xrotation Zrotation
      JOINT RightShoulder
      {
       OFFSET -13.519700 0.000000 0.000000
       CHANNELS 3 Yrotation Xrotation Zrotation
       JOINT RightElbow
       {
        OFFSET 0.000000 -29.696600 0.000000
        CHANNELS 3 Yrotation Xrotation Zrotation
        JOINT RightWrist
        {
         OFFSET 0.000000 -24.004700 0.000000
         CHANNELS 3 Yrotation Xrotation Zrotation
         End Site
         {
          OFFSET 0.000000 -17.728500 0.000000
         }
        }
       }
      }
     }
     JOINT LeftCollar
     {
      OFFSET 2.921100 9.558500 0.000000
      CHANNELS 3 Yrotation Xrotation Zrotation
      JOINT LeftShoulder
      {
       OFFSET 13.519700 0.000000 0.000000
       CHANNELS 3 Yrotation Xrotation Zrotation
       JOINT LeftElbow
       {
        OFFSET 0.000000 -29.696600 0.000000
        CHANNELS 3 Yrotation Xrotation Zrotation
        JOINT LeftWrist
        {
         OFFSET 0.000000 -24.004700 0.000000
         CHANNELS 3 Yrotation Xrotation Zrotation
         End Site
         {
          OFFSET 0.000000 -17.728500 0.000000
         }
        }
       }
      }
     }
    }
   }
  }
 }
 JOINT RightHip
 {
  OFFSET -7.771700 -0.012900 -0.001300
  CHANNELS 3 Yrotation Xrotation Zrotation
  JOINT RightKnee
  {
   OFFSET 0.000000 -40.869800 0.001200
   CHANNELS 3 Yrotation Xrotation Zrotation
   JOINT RightAnkle
   {
    OFFSET 0.000000 -39.717900 0.002100
    CHANNELS 3 Yrotation Xrotation Zrotation
    JOINT RightToe
    {
     OFFSET 0.000000 -4.965400 11.033500
     CHANNELS 3 Yrotation Xrotation Zrotation
     End Site
     {
      OFFSET 0.000000 -1.423100 5.872300
     }
    }
   }
  }
 }
 JOINT LeftHip
 {
  OFFSET 7.771700 -0.012900 -0.001300
  CHANNELS 3 Yrotation Xrotation Zrotation
  JOINT LeftKnee
  {
   OFFSET 0.000000 -40.869800 0.001200
   CHANNELS 3 Yrotation Xrotation Zrotation
   JOINT LeftAnkle
   {
    OFFSET 0.000000 -39.717900 0.002100
    CHANNELS 3 Yrotation Xrotation Zrotation
    JOINT LeftToe
    {
     OFFSET 0.000000 -4.965400 11.033500
     CHANNELS 3 Yrotation Xrotation Zrotation
     End Site
     {
      OFFSET 0.000000 -1.423100 5.872300
     }
    }
   }
  }
 }
}
MOTION
Frames: 5
Frame Time: 0.008333
0.000000 85.388000 0.000000 0.000000 -5.767877 0.000000 0.000000 11.653817 0.000000 0.000000 -5.885947 0.000000 0.000000 -0.000000 0.000000 0.000000 -0.000000 0.000000 0.000000 12.528835 0.000000 0.000000 0.711642 0.000000 0.000000 -0.000000 0.000000 0.000000 0.000000 -90.000000 0.000000 -2.309062 0.000000 0.000000 2.309062 0.000000 0.000000 -0.000000 0.000000 0.000000 -0.000000 90.000000 0.000000 -2.309062 0.000000 0.000000 2.309062 0.000000 0.000000 8.520406 0.000000 0.000000 1.905762 0.000000 -0.000000 -4.658285 0.000000 0.000000 -0.000000 0.000000 0.000000 8.520406 0.000000 0.000000 1.905762 0.000000 -0.000000 -4.658285 0.000000 0.000000 -0.000000 0.000000
-91.045367 57.919768 -0.748819 164.099680 -2.945329 -1.002227 0.893752 5.276329 0.545203 0.050058 0.140039 -0.003935 0.021111 0.303022 0.012038 0.803013 4.965216 0.123754 -3.060917 16.598925 1.240985 -6.104092 -4.844331 3.363407 -4.075571 1.678738 -4.343493 -26.596148 -10.517302 -11.280994 -71.831933 -56.524947 75.957523 -15.456736 -9.454811 -29.507743 1.060684 2.066001 2.702092 30.356470 -4.465267 1.715685 69.349694 -38.596909 -82.711197 13.436041 -7.042385 8.904398 -8.770403 -68.617162 5.362048 -40.737370 72.801581 -43.274688 -5.615618 -7.961628 2.341463 0.396775 0.421671 0.030005 2.334748 -71.357960 14.032934 47.867671 67.968069 39.730074 -18.493552 -9.690311 4.251949 -0.619115 -0.482422 -0.280831
-91.035385 57.921406 -0.743199 164.067292 -2.870624 -1.001694 0.913312 5.214561 0.547692 0.036796 0.145696 -0.001143 0.033028 0.288471 0.009173 0.776208 4.877645 0.127651 -3.023024 16.540202 1.237087 -6.035517 -4.955688 3.346473 -4.043235 1.634533 -4.381947 -26.967613 -10.723529 -11.467277 -72.386905 -56.626726 76.493811 -15.455109 -9.459924 -29.509530 1.057713 2.060979 2.707591 30.663350 -4.699649 1.972829 69.670106 -38.743676 -83.225879 13.446628 -7.070372 8.873704 -8.838212 -68.686243 5.425679 -40.664220 72.818328 -43.151217 -5.662421 -8.029646 2.286095 0.449727 0.495959 0.084755 2.095359 -71.404515 14.242210 47.946217 67.937477 39.755534 -18.353730 -9.671843 4.258588 -0.706319 -0.509947 -0.333734
-91.025802 57.922539 -0.731987 164.039374 -2.767634 -1.000948 0.928225 5.125055 0.549662 0.024571 0.153534 0.002843 0.043698 0.272209 0.005145 0.768584 4.832753 0.127307 -3.001652 16.446366 1.240771 -5.964898 -5.061189 3.328798 -4.023042 1.562584 -4.406714 -27.325527 -10.918237 -11.620294 -72.956409 -56.728583 77.033916 -15.452085 -9.464132 -29.516634 1.032326 2.020242 2.717860 30.955888 -4.899279 2.200664 70.005238 -38.887725 -83.753349 13.454063 -7.089978 8.841025 -8.875429 -68.787244 5.476820 -40.638199 72.818428 -43.066442 -5.694999 -8.042166 2.237897 0.498413 0.510371 0.090390 1.978467 -71.496405 14.348660 48.011998 67.918358 39.788799 -18.311835 -9.678353 4.266866 -0.775660 -0.514777 -0.358555
-91.018634 57.923028 -0.716889 164.003923 -2.650647 -0.989041 0.933897 5.033189 0.541467 0.023859 0.147882 0.002872 0.042393 0.262395 0.005125 0.778278 4.784410 0.123879 -2.983304 16.419566 1.239169 -5.891359 -5.224543 3.319823 -4.003224 1.560143 -4.418937 -27.671529 -11.154908 -11.722393 -73.545809 -56.825533 77.586792 -15.450885 -9.464466 -29.528875 1.004661 1.981917 2.726872 31.225192 -5.063859 2.403635 70.358198 -39.028831 -84.291359 13.459901 -7.101646 8.812519 -8.978664 -68.895184 5.549056 -40.450928 72.837927 -42.846058 -5.637491 -8.068003 2.212894 0.459909 0.539298 0.056299 1.900048 -71.604168 14.414627 48.008307 67.899459 39.787881 -18.298523 -9.666059 4.230561 -0.755111 -0.518526 -0.360030
